<mxfile host="app.diagrams.net" modified="2022-09-12T12:46:50.605Z" agent="5.0 (Macintosh; Intel Mac OS X 10_15_7) AppleWebKit/605.1.15 (KHTML, like Gecko) Version/15.6.1 Safari/605.1.15" etag="W9A3jZcXa2HR8H9SB-_m" version="20.3.0" type="github">
  <diagram id="4XXtDUdaBCzgMPUr4tx_" name="Sayfa -1">
    <mxGraphModel dx="788" dy="538" grid="1" gridSize="10" guides="1" tooltips="1" connect="1" arrows="1" fold="1" page="1" pageScale="1" pageWidth="827" pageHeight="1169" math="0" shadow="0">
      <root>
        <mxCell id="0" />
        <mxCell id="1" parent="0" />
        <mxCell id="czLDuW8MtMY8rJLHhCKj-39" value="University" style="swimlane;fontStyle=1;align=center;verticalAlign=top;childLayout=stackLayout;horizontal=1;startSize=26;horizontalStack=0;resizeParent=1;resizeParentMax=0;resizeLast=0;collapsible=1;marginBottom=0;" vertex="1" parent="1">
          <mxGeometry x="400" y="80" width="126" height="86" as="geometry" />
        </mxCell>
        <mxCell id="czLDuW8MtMY8rJLHhCKj-40" value="+ field: type" style="text;strokeColor=none;fillColor=none;align=left;verticalAlign=top;spacingLeft=4;spacingRight=4;overflow=hidden;rotatable=0;points=[[0,0.5],[1,0.5]];portConstraint=eastwest;" vertex="1" parent="czLDuW8MtMY8rJLHhCKj-39">
          <mxGeometry y="26" width="126" height="26" as="geometry" />
        </mxCell>
        <mxCell id="czLDuW8MtMY8rJLHhCKj-41" value="" style="line;strokeWidth=1;fillColor=none;align=left;verticalAlign=middle;spacingTop=-1;spacingLeft=3;spacingRight=3;rotatable=0;labelPosition=right;points=[];portConstraint=eastwest;strokeColor=inherit;" vertex="1" parent="czLDuW8MtMY8rJLHhCKj-39">
          <mxGeometry y="52" width="126" height="8" as="geometry" />
        </mxCell>
        <mxCell id="czLDuW8MtMY8rJLHhCKj-42" value="+ method(type): type" style="text;strokeColor=none;fillColor=none;align=left;verticalAlign=top;spacingLeft=4;spacingRight=4;overflow=hidden;rotatable=0;points=[[0,0.5],[1,0.5]];portConstraint=eastwest;" vertex="1" parent="czLDuW8MtMY8rJLHhCKj-39">
          <mxGeometry y="60" width="126" height="26" as="geometry" />
        </mxCell>
        <mxCell id="czLDuW8MtMY8rJLHhCKj-51" value="Clasrooms" style="swimlane;fontStyle=1;align=center;verticalAlign=top;childLayout=stackLayout;horizontal=1;startSize=26;horizontalStack=0;resizeParent=1;resizeParentMax=0;resizeLast=0;collapsible=1;marginBottom=0;" vertex="1" parent="1">
          <mxGeometry x="161" y="80" width="129" height="86" as="geometry" />
        </mxCell>
        <mxCell id="czLDuW8MtMY8rJLHhCKj-52" value="+ field: type" style="text;strokeColor=none;fillColor=none;align=left;verticalAlign=top;spacingLeft=4;spacingRight=4;overflow=hidden;rotatable=0;points=[[0,0.5],[1,0.5]];portConstraint=eastwest;" vertex="1" parent="czLDuW8MtMY8rJLHhCKj-51">
          <mxGeometry y="26" width="129" height="26" as="geometry" />
        </mxCell>
        <mxCell id="czLDuW8MtMY8rJLHhCKj-53" value="" style="line;strokeWidth=1;fillColor=none;align=left;verticalAlign=middle;spacingTop=-1;spacingLeft=3;spacingRight=3;rotatable=0;labelPosition=right;points=[];portConstraint=eastwest;strokeColor=inherit;" vertex="1" parent="czLDuW8MtMY8rJLHhCKj-51">
          <mxGeometry y="52" width="129" height="8" as="geometry" />
        </mxCell>
        <mxCell id="czLDuW8MtMY8rJLHhCKj-54" value="+ method(type): type" style="text;strokeColor=none;fillColor=none;align=left;verticalAlign=top;spacingLeft=4;spacingRight=4;overflow=hidden;rotatable=0;points=[[0,0.5],[1,0.5]];portConstraint=eastwest;" vertex="1" parent="czLDuW8MtMY8rJLHhCKj-51">
          <mxGeometry y="60" width="129" height="26" as="geometry" />
        </mxCell>
        <mxCell id="czLDuW8MtMY8rJLHhCKj-55" value="Departmant" style="swimlane;fontStyle=1;align=center;verticalAlign=top;childLayout=stackLayout;horizontal=1;startSize=26;horizontalStack=0;resizeParent=1;resizeParentMax=0;resizeLast=0;collapsible=1;marginBottom=0;" vertex="1" parent="1">
          <mxGeometry x="272" y="240" width="129.5" height="86" as="geometry" />
        </mxCell>
        <mxCell id="czLDuW8MtMY8rJLHhCKj-56" value="+ field: type" style="text;strokeColor=none;fillColor=none;align=left;verticalAlign=top;spacingLeft=4;spacingRight=4;overflow=hidden;rotatable=0;points=[[0,0.5],[1,0.5]];portConstraint=eastwest;" vertex="1" parent="czLDuW8MtMY8rJLHhCKj-55">
          <mxGeometry y="26" width="129.5" height="26" as="geometry" />
        </mxCell>
        <mxCell id="czLDuW8MtMY8rJLHhCKj-57" value="" style="line;strokeWidth=1;fillColor=none;align=left;verticalAlign=middle;spacingTop=-1;spacingLeft=3;spacingRight=3;rotatable=0;labelPosition=right;points=[];portConstraint=eastwest;strokeColor=inherit;" vertex="1" parent="czLDuW8MtMY8rJLHhCKj-55">
          <mxGeometry y="52" width="129.5" height="8" as="geometry" />
        </mxCell>
        <mxCell id="czLDuW8MtMY8rJLHhCKj-58" value="+ method(type): type" style="text;strokeColor=none;fillColor=none;align=left;verticalAlign=top;spacingLeft=4;spacingRight=4;overflow=hidden;rotatable=0;points=[[0,0.5],[1,0.5]];portConstraint=eastwest;" vertex="1" parent="czLDuW8MtMY8rJLHhCKj-55">
          <mxGeometry y="60" width="129.5" height="26" as="geometry" />
        </mxCell>
        <mxCell id="czLDuW8MtMY8rJLHhCKj-59" value="Employess" style="swimlane;fontStyle=1;align=center;verticalAlign=top;childLayout=stackLayout;horizontal=1;startSize=26;horizontalStack=0;resizeParent=1;resizeParentMax=0;resizeLast=0;collapsible=1;marginBottom=0;" vertex="1" parent="1">
          <mxGeometry x="526" y="400" width="122.5" height="86" as="geometry" />
        </mxCell>
        <mxCell id="czLDuW8MtMY8rJLHhCKj-60" value="+ field: type" style="text;strokeColor=none;fillColor=none;align=left;verticalAlign=top;spacingLeft=4;spacingRight=4;overflow=hidden;rotatable=0;points=[[0,0.5],[1,0.5]];portConstraint=eastwest;" vertex="1" parent="czLDuW8MtMY8rJLHhCKj-59">
          <mxGeometry y="26" width="122.5" height="26" as="geometry" />
        </mxCell>
        <mxCell id="czLDuW8MtMY8rJLHhCKj-61" value="" style="line;strokeWidth=1;fillColor=none;align=left;verticalAlign=middle;spacingTop=-1;spacingLeft=3;spacingRight=3;rotatable=0;labelPosition=right;points=[];portConstraint=eastwest;strokeColor=inherit;" vertex="1" parent="czLDuW8MtMY8rJLHhCKj-59">
          <mxGeometry y="52" width="122.5" height="8" as="geometry" />
        </mxCell>
        <mxCell id="czLDuW8MtMY8rJLHhCKj-62" value="+ method(type): type" style="text;strokeColor=none;fillColor=none;align=left;verticalAlign=top;spacingLeft=4;spacingRight=4;overflow=hidden;rotatable=0;points=[[0,0.5],[1,0.5]];portConstraint=eastwest;" vertex="1" parent="czLDuW8MtMY8rJLHhCKj-59">
          <mxGeometry y="60" width="122.5" height="26" as="geometry" />
        </mxCell>
        <mxCell id="czLDuW8MtMY8rJLHhCKj-98" value="" style="edgeStyle=orthogonalEdgeStyle;rounded=0;orthogonalLoop=1;jettySize=auto;html=1;strokeWidth=1;startArrow=none;startFill=0;endArrow=none;endFill=0;targetPerimeterSpacing=-1;exitX=0.472;exitY=0.995;exitDx=0;exitDy=0;exitPerimeter=0;entryX=0.5;entryY=0;entryDx=0;entryDy=0;" edge="1" parent="1" source="czLDuW8MtMY8rJLHhCKj-66" target="czLDuW8MtMY8rJLHhCKj-59">
          <mxGeometry relative="1" as="geometry">
            <Array as="points">
              <mxPoint x="582" y="400" />
            </Array>
          </mxGeometry>
        </mxCell>
        <mxCell id="czLDuW8MtMY8rJLHhCKj-63" value="Work Office" style="swimlane;fontStyle=1;align=center;verticalAlign=top;childLayout=stackLayout;horizontal=1;startSize=26;horizontalStack=0;resizeParent=1;resizeParentMax=0;resizeLast=0;collapsible=1;marginBottom=0;" vertex="1" parent="1">
          <mxGeometry x="526" y="240" width="124" height="86" as="geometry" />
        </mxCell>
        <mxCell id="czLDuW8MtMY8rJLHhCKj-64" value="+ field: type" style="text;strokeColor=none;fillColor=none;align=left;verticalAlign=top;spacingLeft=4;spacingRight=4;overflow=hidden;rotatable=0;points=[[0,0.5],[1,0.5]];portConstraint=eastwest;" vertex="1" parent="czLDuW8MtMY8rJLHhCKj-63">
          <mxGeometry y="26" width="124" height="26" as="geometry" />
        </mxCell>
        <mxCell id="czLDuW8MtMY8rJLHhCKj-65" value="" style="line;strokeWidth=1;fillColor=none;align=left;verticalAlign=middle;spacingTop=-1;spacingLeft=3;spacingRight=3;rotatable=0;labelPosition=right;points=[];portConstraint=eastwest;strokeColor=inherit;" vertex="1" parent="czLDuW8MtMY8rJLHhCKj-63">
          <mxGeometry y="52" width="124" height="8" as="geometry" />
        </mxCell>
        <mxCell id="czLDuW8MtMY8rJLHhCKj-66" value="+ method(type): type" style="text;strokeColor=none;fillColor=none;align=left;verticalAlign=top;spacingLeft=4;spacingRight=4;overflow=hidden;rotatable=0;points=[[0,0.5],[1,0.5]];portConstraint=eastwest;" vertex="1" parent="czLDuW8MtMY8rJLHhCKj-63">
          <mxGeometry y="60" width="124" height="26" as="geometry" />
        </mxCell>
        <mxCell id="czLDuW8MtMY8rJLHhCKj-69" value="Classname" style="swimlane;fontStyle=1;align=center;verticalAlign=top;childLayout=stackLayout;horizontal=1;startSize=26;horizontalStack=0;resizeParent=1;resizeParentMax=0;resizeLast=0;collapsible=1;marginBottom=0;" vertex="1" parent="1">
          <mxGeometry x="650" y="560" width="123" height="86" as="geometry" />
        </mxCell>
        <mxCell id="czLDuW8MtMY8rJLHhCKj-70" value="+ field: type" style="text;strokeColor=none;fillColor=none;align=left;verticalAlign=top;spacingLeft=4;spacingRight=4;overflow=hidden;rotatable=0;points=[[0,0.5],[1,0.5]];portConstraint=eastwest;" vertex="1" parent="czLDuW8MtMY8rJLHhCKj-69">
          <mxGeometry y="26" width="123" height="26" as="geometry" />
        </mxCell>
        <mxCell id="czLDuW8MtMY8rJLHhCKj-71" value="" style="line;strokeWidth=1;fillColor=none;align=left;verticalAlign=middle;spacingTop=-1;spacingLeft=3;spacingRight=3;rotatable=0;labelPosition=right;points=[];portConstraint=eastwest;strokeColor=inherit;" vertex="1" parent="czLDuW8MtMY8rJLHhCKj-69">
          <mxGeometry y="52" width="123" height="8" as="geometry" />
        </mxCell>
        <mxCell id="czLDuW8MtMY8rJLHhCKj-72" value="+ method(type): type" style="text;strokeColor=none;fillColor=none;align=left;verticalAlign=top;spacingLeft=4;spacingRight=4;overflow=hidden;rotatable=0;points=[[0,0.5],[1,0.5]];portConstraint=eastwest;" vertex="1" parent="czLDuW8MtMY8rJLHhCKj-69">
          <mxGeometry y="60" width="123" height="26" as="geometry" />
        </mxCell>
        <mxCell id="czLDuW8MtMY8rJLHhCKj-73" value="Classname" style="swimlane;fontStyle=1;align=center;verticalAlign=top;childLayout=stackLayout;horizontal=1;startSize=26;horizontalStack=0;resizeParent=1;resizeParentMax=0;resizeLast=0;collapsible=1;marginBottom=0;" vertex="1" parent="1">
          <mxGeometry x="401.5" y="560" width="124.5" height="86" as="geometry" />
        </mxCell>
        <mxCell id="czLDuW8MtMY8rJLHhCKj-74" value="+ field: type" style="text;strokeColor=none;fillColor=none;align=left;verticalAlign=top;spacingLeft=4;spacingRight=4;overflow=hidden;rotatable=0;points=[[0,0.5],[1,0.5]];portConstraint=eastwest;" vertex="1" parent="czLDuW8MtMY8rJLHhCKj-73">
          <mxGeometry y="26" width="124.5" height="26" as="geometry" />
        </mxCell>
        <mxCell id="czLDuW8MtMY8rJLHhCKj-75" value="" style="line;strokeWidth=1;fillColor=none;align=left;verticalAlign=middle;spacingTop=-1;spacingLeft=3;spacingRight=3;rotatable=0;labelPosition=right;points=[];portConstraint=eastwest;strokeColor=inherit;" vertex="1" parent="czLDuW8MtMY8rJLHhCKj-73">
          <mxGeometry y="52" width="124.5" height="8" as="geometry" />
        </mxCell>
        <mxCell id="czLDuW8MtMY8rJLHhCKj-76" value="+ method(type): type" style="text;strokeColor=none;fillColor=none;align=left;verticalAlign=top;spacingLeft=4;spacingRight=4;overflow=hidden;rotatable=0;points=[[0,0.5],[1,0.5]];portConstraint=eastwest;" vertex="1" parent="czLDuW8MtMY8rJLHhCKj-73">
          <mxGeometry y="60" width="124.5" height="26" as="geometry" />
        </mxCell>
        <mxCell id="czLDuW8MtMY8rJLHhCKj-77" value="Extends" style="endArrow=block;endSize=16;endFill=0;html=1;rounded=0;exitX=1;exitY=0;exitDx=0;exitDy=0;" edge="1" parent="1" source="czLDuW8MtMY8rJLHhCKj-73">
          <mxGeometry width="160" relative="1" as="geometry">
            <mxPoint x="185.5" y="379" as="sourcePoint" />
            <mxPoint x="560" y="490" as="targetPoint" />
            <Array as="points" />
          </mxGeometry>
        </mxCell>
        <mxCell id="czLDuW8MtMY8rJLHhCKj-78" value="Extends" style="endArrow=block;endSize=16;endFill=0;html=1;rounded=0;exitX=0;exitY=0;exitDx=0;exitDy=0;" edge="1" parent="1" source="czLDuW8MtMY8rJLHhCKj-69">
          <mxGeometry width="160" relative="1" as="geometry">
            <mxPoint x="185.5" y="379" as="sourcePoint" />
            <mxPoint x="620" y="490" as="targetPoint" />
            <Array as="points" />
          </mxGeometry>
        </mxCell>
        <mxCell id="czLDuW8MtMY8rJLHhCKj-99" value="" style="endArrow=diamondThin;endFill=1;endSize=24;html=1;rounded=0;strokeWidth=1;targetPerimeterSpacing=-1;" edge="1" parent="1">
          <mxGeometry width="160" relative="1" as="geometry">
            <mxPoint x="290" y="120" as="sourcePoint" />
            <mxPoint x="400" y="120" as="targetPoint" />
          </mxGeometry>
        </mxCell>
        <mxCell id="czLDuW8MtMY8rJLHhCKj-105" value="1..*" style="edgeLabel;html=1;align=center;verticalAlign=middle;resizable=0;points=[];" vertex="1" connectable="0" parent="czLDuW8MtMY8rJLHhCKj-99">
          <mxGeometry x="-0.7818" y="1" relative="1" as="geometry">
            <mxPoint y="1" as="offset" />
          </mxGeometry>
        </mxCell>
        <mxCell id="czLDuW8MtMY8rJLHhCKj-106" value="1" style="edgeLabel;html=1;align=center;verticalAlign=middle;resizable=0;points=[];" vertex="1" connectable="0" parent="czLDuW8MtMY8rJLHhCKj-99">
          <mxGeometry x="0.3242" y="1" relative="1" as="geometry">
            <mxPoint as="offset" />
          </mxGeometry>
        </mxCell>
        <mxCell id="czLDuW8MtMY8rJLHhCKj-100" value="" style="endArrow=diamondThin;endFill=1;endSize=24;html=1;rounded=0;strokeWidth=1;targetPerimeterSpacing=-1;exitX=1;exitY=0;exitDx=0;exitDy=0;entryX=0.307;entryY=1.071;entryDx=0;entryDy=0;entryPerimeter=0;" edge="1" parent="1" source="czLDuW8MtMY8rJLHhCKj-55" target="czLDuW8MtMY8rJLHhCKj-42">
          <mxGeometry width="160" relative="1" as="geometry">
            <mxPoint x="400" y="220" as="sourcePoint" />
            <mxPoint x="560" y="220" as="targetPoint" />
          </mxGeometry>
        </mxCell>
        <mxCell id="czLDuW8MtMY8rJLHhCKj-109" value="1..*" style="edgeLabel;html=1;align=center;verticalAlign=middle;resizable=0;points=[];" vertex="1" connectable="0" parent="czLDuW8MtMY8rJLHhCKj-100">
          <mxGeometry x="-0.6891" y="-2" relative="1" as="geometry">
            <mxPoint as="offset" />
          </mxGeometry>
        </mxCell>
        <mxCell id="czLDuW8MtMY8rJLHhCKj-110" value="1" style="edgeLabel;html=1;align=center;verticalAlign=middle;resizable=0;points=[];" vertex="1" connectable="0" parent="czLDuW8MtMY8rJLHhCKj-100">
          <mxGeometry x="0.1372" y="-1" relative="1" as="geometry">
            <mxPoint as="offset" />
          </mxGeometry>
        </mxCell>
        <mxCell id="czLDuW8MtMY8rJLHhCKj-102" value="" style="endArrow=diamondThin;endFill=1;endSize=24;html=1;rounded=0;strokeWidth=1;targetPerimeterSpacing=-1;exitX=0.593;exitY=-0.016;exitDx=0;exitDy=0;entryX=1;entryY=0.5;entryDx=0;entryDy=0;exitPerimeter=0;" edge="1" parent="1" source="czLDuW8MtMY8rJLHhCKj-63" target="czLDuW8MtMY8rJLHhCKj-40">
          <mxGeometry width="160" relative="1" as="geometry">
            <mxPoint x="570" y="130" as="sourcePoint" />
            <mxPoint x="730" y="130" as="targetPoint" />
            <Array as="points">
              <mxPoint x="599" y="120" />
            </Array>
          </mxGeometry>
        </mxCell>
        <mxCell id="czLDuW8MtMY8rJLHhCKj-107" value="1" style="edgeLabel;html=1;align=center;verticalAlign=middle;resizable=0;points=[];" vertex="1" connectable="0" parent="czLDuW8MtMY8rJLHhCKj-102">
          <mxGeometry x="0.6283" y="-2" relative="1" as="geometry">
            <mxPoint as="offset" />
          </mxGeometry>
        </mxCell>
        <mxCell id="czLDuW8MtMY8rJLHhCKj-108" value="1..*" style="edgeLabel;html=1;align=center;verticalAlign=middle;resizable=0;points=[];" vertex="1" connectable="0" parent="czLDuW8MtMY8rJLHhCKj-102">
          <mxGeometry x="-0.8787" relative="1" as="geometry">
            <mxPoint as="offset" />
          </mxGeometry>
        </mxCell>
        <mxCell id="czLDuW8MtMY8rJLHhCKj-104" value="" style="endArrow=diamondThin;endFill=1;endSize=24;html=1;rounded=0;strokeWidth=1;targetPerimeterSpacing=-1;entryX=0;entryY=0.5;entryDx=0;entryDy=0;" edge="1" parent="1" target="czLDuW8MtMY8rJLHhCKj-64">
          <mxGeometry width="160" relative="1" as="geometry">
            <mxPoint x="400" y="280" as="sourcePoint" />
            <mxPoint x="520" y="280" as="targetPoint" />
          </mxGeometry>
        </mxCell>
      </root>
    </mxGraphModel>
  </diagram>
</mxfile>
